# xmcd
# 
# Track frame offsets:
#     150
#     17528
#     37839
#     53399
#     67686
#     81180
#     97523
#     112968
#     127915
#     144318
#     159459
#     174237
#     191959
#     208029
#     223344
#     237603
# 
# Disc length: 3372
# 
# Revision: 2
# Processed by: cddbd v1.5.2PL0 Copyright (c) Steve Scherf et al.
# Submitted via: fre:ac v1.0.31
# 
DISCID=c70d2a10
DTITLE=Various Artist - Line Dance Fever 18
DYEAR=2007
DGENRE=Country
TTITLE0=LeAnn Rimes - Nothin Better To Do
TTITLE1=Tim McGraw - Last Dollar  (Fly Away)
TTITLE2=Hal Ketchum - One More Midnight
TTITLE3=Jo Dee Messina - Biker Chick
TTITLE4=Rodney Atkins - About The South
TTITLE5=Clay Walker - Fall
TTITLE6=Bellamy Brothers - You're the World
TTITLE7=Steve Holy - Men Buy the Drinks (Girls Call the Shots)
TTITLE8=LeAnn Rimes - Probably Wouldn't Be This Way
TTITLE9=Hal Ketchum - One Of the Things
TTITLE10=Hank Williams Jr - That's How They Do It In Dixie
TTITLE11=Rodney Atkins - Watching You
TTITLE12=Wynonna - Attitude
TTITLE13=Bomshel - It Was An Absolutely Finger Lickin Chicken and Grits Love Song
TTITLE14=Cowboy Crush - Hillbilly Nation
TTITLE15=Bellamy Brothers - Dancin' Cowboys
EXTD=
EXTT0=
EXTT1=
EXTT2=
EXTT3=
EXTT4=
EXTT5=
EXTT6=
EXTT7=
EXTT8=
EXTT9=
EXTT10=
EXTT11=
EXTT12=
EXTT13=
EXTT14=
EXTT15=
PLAYORDER=
